<svg width="272" height="176" viewBox="0 0 272 176" fill="none" xmlns="http://www.w3.org/2000/svg">
<path d="M17.0906 51.2789C18.2365 48.1107 21.2446 46 24.6136 46H247.386C250.755 46 253.763 48.1107 254.909 51.2789L269.523 91.6813C269.839 92.5538 270 93.4745 270 94.4024V166C270 170.418 266.418 174 262 174H9.99999C5.58172 174 2 170.418 2 166V94.4024C2 93.4745 2.1614 92.5538 2.47699 91.6813L17.0906 51.2789Z" fill="#3670D4" fill-opacity="0.4"/>
<path d="M270 166.263C270 167.367 269.105 168.263 268 168.263H4C2.89543 168.263 2 167.367 2 166.263V94H97.9902C98.0687 113.847 115.227 129.913 136.384 129.913C157.54 129.913 174.699 113.847 174.777 94H270V166.263Z" fill="white"/>
<path d="M152 87.0383C154.209 87.0383 156 85.2475 156 83.0383V37.0657C156 37.0189 155.998 36.9724 155.996 36.926L165.4 37.0012C167.151 37.0153 168.077 34.9463 166.896 33.6604L137.48 1.64868C136.685 0.783646 135.315 0.783646 134.52 1.64868L105.105 33.6604C103.923 34.9463 104.85 37.0154 106.601 37.0012L116.003 36.926C116.002 36.9724 116 37.0189 116 37.0657V83.0383C116 85.2475 117.791 87.0383 120 87.0383H152Z" fill="white"/>
</svg>
