<svg width="86" height="24" viewBox="0 0 86 24" fill="none" xmlns="http://www.w3.org/2000/svg">
<g clip-path="url(#clip0_2_269)">
<rect width="17" height="24" rx="2" fill="#3670D4" fill-opacity="0.4"/>
<path d="M16.2422 11H24V13H16.2422L13 16.2422L8.75781 12L13 7.75684L16.2422 11Z" fill="#3670D4"/>
</g>
<path d="M36.7967 18.096C36.5727 18.096 36.3274 18.0907 36.0607 18.08C35.8047 18.0693 35.5434 18.0533 35.2767 18.032C35.0207 18.0107 34.7647 17.984 34.5087 17.952C34.2527 17.92 34.0181 17.8773 33.8047 17.824V7.072C34.0181 7.01867 34.2527 6.976 34.5087 6.944C34.7647 6.912 35.0207 6.88533 35.2767 6.864C35.5434 6.84267 35.8047 6.82667 36.0607 6.816C36.3167 6.80533 36.5567 6.8 36.7807 6.8C37.4207 6.8 38.0181 6.848 38.5727 6.944C39.1381 7.04 39.6234 7.20533 40.0287 7.44C40.4447 7.664 40.7701 7.96267 41.0047 8.336C41.2394 8.70933 41.3567 9.168 41.3567 9.712C41.3567 10.32 41.2127 10.8213 40.9247 11.216C40.6367 11.6 40.2527 11.888 39.7727 12.08C40.4234 12.272 40.9407 12.576 41.3247 12.992C41.7087 13.408 41.9007 13.9947 41.9007 14.752C41.9007 15.8613 41.4901 16.6987 40.6687 17.264C39.8581 17.8187 38.5674 18.096 36.7967 18.096ZM35.3407 12.832V16.736C35.4581 16.7467 35.5967 16.7573 35.7567 16.768C35.8954 16.7787 36.0554 16.7893 36.2367 16.8C36.4287 16.8 36.6474 16.8 36.8927 16.8C37.3514 16.8 37.7834 16.7733 38.1887 16.72C38.6047 16.656 38.9674 16.5493 39.2767 16.4C39.5861 16.2507 39.8314 16.0427 40.0127 15.776C40.2047 15.5093 40.3007 15.1733 40.3007 14.768C40.3007 14.4053 40.2314 14.1013 40.0927 13.856C39.9541 13.6 39.7514 13.3973 39.4847 13.248C39.2287 13.0987 38.9194 12.992 38.5567 12.928C38.1941 12.864 37.7887 12.832 37.3407 12.832H35.3407ZM35.3407 11.584H36.9727C37.3567 11.584 37.7194 11.5573 38.0607 11.504C38.4021 11.4507 38.6954 11.3547 38.9407 11.216C39.1967 11.0773 39.3941 10.896 39.5327 10.672C39.6821 10.448 39.7567 10.1653 39.7567 9.824C39.7567 9.504 39.6821 9.23733 39.5327 9.024C39.3834 8.8 39.1754 8.624 38.9087 8.496C38.6527 8.35733 38.3487 8.256 37.9967 8.192C37.6447 8.128 37.2714 8.096 36.8767 8.096C36.4821 8.096 36.1727 8.10133 35.9487 8.112C35.7247 8.12267 35.5221 8.13867 35.3407 8.16V11.584ZM43.158 12.448C43.158 11.4987 43.2967 10.6613 43.574 9.936C43.862 9.21067 44.246 8.608 44.726 8.128C45.2167 7.63733 45.782 7.26933 46.422 7.024C47.0727 6.77867 47.7607 6.656 48.486 6.656C49.2007 6.656 49.8727 6.77867 50.502 7.024C51.142 7.26933 51.702 7.63733 52.182 8.128C52.662 8.608 53.0407 9.21067 53.318 9.936C53.606 10.6613 53.75 11.4987 53.75 12.448C53.75 13.3973 53.606 14.2347 53.318 14.96C53.0407 15.6853 52.662 16.2933 52.182 16.784C51.702 17.264 51.142 17.6267 50.502 17.872C49.8727 18.1173 49.2007 18.24 48.486 18.24C47.7607 18.24 47.0727 18.1173 46.422 17.872C45.782 17.6267 45.2167 17.264 44.726 16.784C44.246 16.2933 43.862 15.6853 43.574 14.96C43.2967 14.2347 43.158 13.3973 43.158 12.448ZM44.79 12.448C44.79 13.12 44.8753 13.7333 45.046 14.288C45.2167 14.832 45.4567 15.296 45.766 15.68C46.086 16.064 46.47 16.3627 46.918 16.576C47.3767 16.7787 47.8887 16.88 48.454 16.88C49.0193 16.88 49.526 16.7787 49.974 16.576C50.422 16.3627 50.8007 16.064 51.11 15.68C51.43 15.296 51.6753 14.832 51.846 14.288C52.0167 13.7333 52.102 13.12 52.102 12.448C52.102 11.776 52.0167 11.168 51.846 10.624C51.6753 10.0693 51.43 9.6 51.11 9.216C50.8007 8.832 50.422 8.53867 49.974 8.336C49.526 8.12267 49.0193 8.016 48.454 8.016C47.8887 8.016 47.3767 8.12267 46.918 8.336C46.47 8.53867 46.086 8.832 45.766 9.216C45.4567 9.6 45.2167 10.0693 45.046 10.624C44.8753 11.168 44.79 11.776 44.79 12.448ZM55.5791 18V6.912H57.0991V15.12C57.4405 14.5547 57.8565 13.9093 58.3471 13.184C58.8485 12.4587 59.3765 11.7227 59.9311 10.976C60.4965 10.2187 61.0618 9.488 61.6271 8.784C62.2031 8.06933 62.7418 7.44533 63.2431 6.912H64.4751V18H62.9551V9.344C62.6565 9.68533 62.3311 10.08 61.9791 10.528C61.6271 10.976 61.2645 11.456 60.8911 11.968C60.5178 12.4693 60.1391 12.992 59.7551 13.536C59.3818 14.08 59.0191 14.6187 58.6671 15.152C58.3151 15.6747 57.9845 16.1813 57.6751 16.672C57.3765 17.1627 57.1098 17.6053 56.8751 18H55.5791ZM60.0431 5.84C59.3711 5.84 58.8218 5.66933 58.3951 5.328C57.9791 4.98667 57.7285 4.512 57.6431 3.904L58.7791 3.6C58.8645 3.94133 59.0085 4.21867 59.2111 4.432C59.4138 4.64533 59.6911 4.752 60.0431 4.752C60.3951 4.752 60.6725 4.64533 60.8751 4.432C61.0778 4.21867 61.2218 3.94133 61.3071 3.6L62.4271 3.904C62.3418 4.512 62.0911 4.98667 61.6751 5.328C61.2591 5.66933 60.7151 5.84 60.0431 5.84ZM74.1478 6.912V8.256H70.6598V18H69.1078V8.256H65.6198V6.912H74.1478ZM75.3066 18V6.912H76.8266V15.12C77.168 14.5547 77.584 13.9093 78.0746 13.184C78.576 12.4587 79.104 11.7227 79.6586 10.976C80.224 10.2187 80.7893 9.488 81.3546 8.784C81.9306 8.06933 82.4693 7.44533 82.9706 6.912H84.2026V18H82.6826V9.344C82.384 9.68533 82.0586 10.08 81.7066 10.528C81.3546 10.976 80.992 11.456 80.6186 11.968C80.2453 12.4693 79.8666 12.992 79.4826 13.536C79.1093 14.08 78.7466 14.6187 78.3946 15.152C78.0426 15.6747 77.712 16.1813 77.4026 16.672C77.104 17.1627 76.8373 17.6053 76.6026 18H75.3066Z" fill="#3670D4" fill-opacity="0.8"/>
<defs>
<clipPath id="clip0_2_269">
<rect width="24" height="24" fill="white"/>
</clipPath>
</defs>
</svg>
