<svg width="64" height="40" viewBox="0 0 64 40" fill="none" xmlns="http://www.w3.org/2000/svg">
<path d="M20.6014 9.82403V13.312H13.7854V32H9.72138V13.312H2.90538V9.82403H20.6014ZM55.8306 9.82403H59.8626V32H55.8306V22.176H46.1986V32H42.1666V9.82403H46.1986V18.688H55.8306V9.82403Z" fill="#3670D4"/>
<path d="M23.3114 20.896C23.3114 22.112 23.4607 23.2214 23.7594 24.224C24.058 25.2054 24.4847 26.048 25.0394 26.752C25.6154 27.4347 26.3087 27.968 27.1194 28.352C27.93 28.736 28.8474 28.928 29.8714 28.928C30.874 28.928 31.7807 28.736 32.5914 28.352C33.402 27.968 34.0847 27.4347 34.6394 26.752C35.2154 26.048 35.6527 25.2054 35.9514 24.224C36.25 23.2214 36.3994 22.112 36.3994 20.896C36.3994 19.68 36.25 18.5814 35.9514 17.6C35.6527 16.5974 35.2154 15.7547 34.6394 15.072C34.0847 14.368 33.402 13.824 32.5914 13.44C31.7807 13.056 30.874 12.864 29.8714 12.864C28.8474 12.864 27.93 13.056 27.1194 13.44C26.3087 13.824 25.6154 14.368 25.0394 15.072C24.4847 15.776 24.058 16.6187 23.7594 17.6C23.4607 18.5814 23.3114 19.68 23.3114 20.896ZM40.6234 20.896C40.6234 22.7947 40.3354 24.4694 39.7594 25.92C39.2047 27.3707 38.4367 28.5867 37.4554 29.568C36.4954 30.528 35.3647 31.2534 34.0634 31.744C32.762 32.2347 31.3754 32.48 29.9034 32.48C28.4314 32.48 27.034 32.2347 25.7114 31.744C24.41 31.2534 23.2687 30.528 22.2874 29.568C21.3274 28.5867 20.5594 27.3707 19.9834 25.92C19.4074 24.4694 19.1194 22.7947 19.1194 20.896C19.1194 18.9974 19.4074 17.3334 19.9834 15.904C20.5594 14.4534 21.338 13.2374 22.3194 12.256C23.322 11.2747 24.474 10.5387 25.7754 10.048C27.0767 9.55736 28.4527 9.31203 29.9034 9.31203C31.354 9.31203 32.73 9.55736 34.0314 10.048C35.3327 10.5387 36.4634 11.2747 37.4234 12.256C38.4047 13.2374 39.1834 14.4534 39.7594 15.904C40.3354 17.3334 40.6234 18.9974 40.6234 20.896Z" fill="white"/>
<g clip-path="url(#clip0_2_266)">
<rect x="12" y="3.05176e-05" width="40" height="40" fill="#D9D9D9"/>
<path d="M52 7.00003V40H12V33L52 7.00003Z" fill="#8BADE8" fill-opacity="0.9"/>
<path d="M12 33L12 3.17787e-07L52 3.8147e-06L52 7L12 33Z" fill="#3670D4"/>
<path d="M52 20L52 40L45 40L32 20L52 20Z" fill="#3670D4"/>
<path d="M12 20L12 -8.74228e-07L19 -5.68248e-07L32 20L12 20Z" fill="#8BADE8" fill-opacity="0.9"/>
<path d="M21.6014 9.82403V13.312H14.7854V32H10.7214V13.312H3.90538V9.82403H21.6014ZM24.3114 20.896C24.3114 22.112 24.4607 23.2214 24.7594 24.224C25.058 25.2054 25.4847 26.048 26.0394 26.752C26.6154 27.4347 27.3087 27.968 28.1194 28.352C28.93 28.736 29.8474 28.928 30.8714 28.928C31.874 28.928 32.7807 28.736 33.5914 28.352C34.402 27.968 35.0847 27.4347 35.6394 26.752C36.2154 26.048 36.6527 25.2054 36.9514 24.224C37.25 23.2214 37.3994 22.112 37.3994 20.896C37.3994 19.68 37.25 18.5814 36.9514 17.6C36.6527 16.5974 36.2154 15.7547 35.6394 15.072C35.0847 14.368 34.402 13.824 33.5914 13.44C32.7807 13.056 31.874 12.864 30.8714 12.864C29.8474 12.864 28.93 13.056 28.1194 13.44C27.3087 13.824 26.6154 14.368 26.0394 15.072C25.4847 15.776 25.058 16.6187 24.7594 17.6C24.4607 18.5814 24.3114 19.68 24.3114 20.896ZM41.6234 20.896C41.6234 22.7947 41.3354 24.4694 40.7594 25.92C40.2047 27.3707 39.4367 28.5867 38.4554 29.568C37.4954 30.528 36.3647 31.2534 35.0634 31.744C33.762 32.2347 32.3754 32.48 30.9034 32.48C29.4314 32.48 28.034 32.2347 26.7114 31.744C25.41 31.2534 24.2687 30.528 23.2874 29.568C22.3274 28.5867 21.5594 27.3707 20.9834 25.92C20.4074 24.4694 20.1194 22.7947 20.1194 20.896C20.1194 18.9974 20.4074 17.3334 20.9834 15.904C21.5594 14.4534 22.338 13.2374 23.3194 12.256C24.322 11.2747 25.474 10.5387 26.7754 10.048C28.0767 9.55736 29.4527 9.31203 30.9034 9.31203C32.354 9.31203 33.73 9.55736 35.0314 10.048C36.3327 10.5387 37.4634 11.2747 38.4234 12.256C39.4047 13.2374 40.1834 14.4534 40.7594 15.904C41.3354 17.3334 41.6234 18.9974 41.6234 20.896ZM56.8306 9.82403H60.8626V32H56.8306V22.176H47.1986V32H43.1666V9.82403H47.1986V18.688H56.8306V9.82403Z" fill="white"/>
</g>
<defs>
<clipPath id="clip0_2_266">
<rect x="12" width="40" height="40" rx="2" fill="white"/>
</clipPath>
</defs>
</svg>
